<?xml version="1.0" encoding="UTF-8" standalone="no"?>
<svg
width="800"
height="1600"
viewBox="-400 -400 800 800"
    xmlns="http://www.w3.org/2000/svg"
    xmlns:xlink="http://www.w3.org/1999/xlink"
    >
<!-- 尝试:组件 -->
<!--
"id" 作为 组件名
use: 不支持 scale rotate
  transform="matrix(1,2,3,4,5,6)"
  恒等变换？transform="matrix(1,0,0,1,0,0)"
    ??? [a,b;c,d]*[x;y] + [e;f]
    但是 坐标变换 很难预料 跑到哪里去
    !! 先 矩阵外部偏移，再 旋转缩放，最后 矩阵内部偏移
    => 矩阵外部偏移 xy 应当将 原组件中心 摆到 原点，矩阵内部偏移 将 靶组件 摆到 目的地
transform="matrix(a,b,c,d,e,f)"
点坐标:[x;y;1]
线性变换矩阵:[a,b,e;c,d,f;0,0,1]
-->
<defs>
  <path id="path_1__rect" stroke-width="1" d="M 0 0 h 100 v 100 h -100 z"/>
  <symbol id="component_1" overflow="visible" >
    <path stroke="green" stroke-width="10" fill="blue"  d="M -50 0 a 50 50   0 0 1   100 0 z"/>
    <path stroke="orange" stroke-width="10" fill="grey"  d="M -50 10 l 50 50   50 -50 z"/>
  </symbol>
</defs>
<g stroke="#00FF00" stroke-width="10" >
  <polyline points="0,0 0,200 " />
</g>

<g stroke="#0000FF" stroke-width="10" >
  <polyline points="0,0 100,0 " />
</g>

<g stroke="red" stroke-width="3" fill="yellow" >
  <use x="-300" y="-300" xlink:href="#path_1__rect"/>
  <use x="100" y="-300" xlink:href="#path_1__rect"/>
  <use x="100" y="100" xlink:href="#path_1__rect"/>
  <use x="-300" y="100" xlink:href="#component_1"/>
  <use x="-200" y="0" transform="matrix(1,0,0,1,0,0)" xlink:href="#component_1"/>
  <use x="-100" y="-100" transform="matrix(2,0,0,2,100,100)" xlink:href="#component_1"/>
  <use x="-100" y="100" transform="matrix(0,1,1,0,0,0)" xlink:href="#component_1"/>
  <use x="0" y="0" transform="matrix(0,0.5,2,0,-100,100)" xlink:href="#component_1"/>

</g>
</svg>


