<?xml version="1.0" encoding="UTF-8" standalone="no"?>
<svg
width="400"
height="800"
viewBox="-200 -200 400 400"
    xmlns="http://www.w3.org/2000/svg" >
<!-- 尝试:路径 -->
<!--
e ../lots/NOTE/graph/svg/path6svg.txt

view /sdcard/0my_files/tmp/out4py/py_src/site-packages/cairosvg/path.py
  三角形:<path d="M 60 31 L 52 46 L 45 138 "/>

相对坐标:相对于 隐含的 当前坐标
  当前坐标 被更新为 最后一个坐标
M:move
  x y # 绝对坐标
m:relative move
  x y # 相对坐标

a A:arc# Elliptic curve
  #区分:相对坐标 绝对坐标
  rx ry rotation large sweep x3 y3
    large:regex"[01]"
    sweep:regex"[01]"
    # x1, y1 = current_point

C:Curve
  x1 y1 x2 y2 x3 y3 # 绝对坐标
c:Relative curve
  x1 y1 x2 y2 x3 y3 # 相对坐标
  应该就是 贝塞尔曲线？Bessel？

h:Relative horizontal line
  x # 相对坐标
H:Horizontal line
  x # 绝对坐标

l:Relative straight line
  x y # 相对坐标
L:Straight line
  x y # 绝对坐标

q:Relative quadratic curve
  x2 y2 x3 x3 # 相对坐标
  # x1 y1 := 0 0
Q:Quadratic curve
  x2 y2 x3 y3 # 绝对坐标
  # x1 y1 := 当前坐标

s:Relative smooth curve
  x2 y2 x3 x3 # 相对坐标
    x, y = current_point
    x1 = x3 - x2 if last_letter in 'csCS' else 0
    y1 = y3 - y2 if last_letter in 'csCS' else 0
S:Smooth curve
  x2 y2 x3 y3 # 绝对坐标
    x, y = current_point
    x1 = x3 + (x3 - x2) if last_letter in 'csCS' else x
    y1 = y3 + (y3 - y2) if last_letter in 'csCS' else y

t:Relative quadratic curve end
  x3 y3 # 相对坐标
    #其余点的计算分多种情形
T:Quadratic curve end
  x3 y3 # 绝对坐标

v:Relative vertical line
  y # 相对坐标
V:Vertical line
  y # 绝对坐标

z Z:End of path
  zZ并无差别？
  出现=>polygon 闭合多边形
  缺失=>polyline

见下面『t』:可见 连续同一操作符可省略
  <path d="M -200 150 t 100 -50 50 100"/>
  <path d="M 0 150 t 100 -50 t 50 100"/>

-->
<g stroke="#00FF00" stroke-width="10" >
  <polyline points="0,0 0,200 " />
</g>

<g stroke="#0000FF" stroke-width="10" >
  <polyline points="0,0 100,0 " />
</g>

<g stroke="red" stroke-width="3" fill="yellow" >
  <path d="M -200 -200 h 50 v 100 l -25 50  "/>
  <path d="M -100 -200 h 50 v 100 l -25 50 z "/>
  <path d="M 0 -200 h 50 v 100 l -25 50 Z "/>

  <path d="M -200 0 a 25 50 45 1 1 50 100"/>
  <path d="M -100 0 c 25 -25 100 -50 50 100"/>
  <path d="M 0 0 q 100 -50 50 100"/>
  <path d="M 100 0 s 100 -50 50 100"/>
  <path d="M -200 150 t 100 -50 50 100"/>
  <path d="M 0 150 t 100 -50 t 50 100"/>

</g>
</svg>


