<?xml version="1.0" encoding="UTF-8" standalone="no"?>
<svg width="84.6667mm" height="21.1667mm"
 viewBox="0 0 240 60"
 xmlns="http://www.w3.org/2000/svg" xmlns:xlink="http://www.w3.org/1999/xlink"  version="1.2" baseProfile="tiny">
<title>Qt SVG Document</title>
<desc>Generated with Qt</desc>
<defs>
</defs>
<g fill="none" stroke="black" stroke-width="1" fill-rule="evenodd" stroke-linecap="square" stroke-linejoin="bevel" >

<g fill="none" stroke="none" transform="matrix(1,0,0,1,0,0)"
font-family="SimSun" font-size="9" font-weight="400" font-style="normal" 
>
<path vector-effect="none" fill-rule="evenodd" d="M0,0 L240,0 L240,60 L0,60 L0,0"/>
</g>

<g fill="none" stroke="#000000" stroke-opacity="1" stroke-width="1" stroke-linecap="round" stroke-linejoin="round" transform="matrix(1,0,0,1,0,0)"
font-family="SimSun" font-size="9" font-weight="400" font-style="normal" 
>
<polyline fill="none" vector-effect="non-scaling-stroke" points="20,39 26,45 27,45 28,46 29,46 30,46 31,47 32,47 32,47 33,47 33,47 34,48 35,48 35,48 36,48 36,48 37,48 37,48 38,48 38,49 39,49 39,49 40,49 40,49 40,49 41,49 41,49 42,49 42,49 43,50 43,50 43,50 44,50 44,50 44,50 45,50 45,50 46,50 46,50 46,50 47,50 47,50 47,50 48,51 48,51 48,51 49,51 49,51 49,51 50,51 50,51 50,51 51,51 51,51 51,51 51,51 52,51 52,51 52,51 53,51 53,51 53,51 54,51 54,51 54,52 54,52 55,52 55,52 55,52 56,52 56,52 56,52 56,52 57,52 57,52 57,52 57,52 58,52 58,52 58,52 59,52 59,52 59,52 59,52 60,52 60,52 60,52 60,52 61,52 61,52 61,52 61,52 62,53 62,53 62,53 62,53 63,53 63,53 63,53 63,53 64,53 64,53 64,53 64,53 65,53 65,53 65,53 65,53 66,53 66,53 66,53 66,53 67,53 67,53 67,53 67,53 68,53 68,53 68,53 68,53 69,53 69,53 69,53 70,53 70,53 70,53 70,53 71,53 71,54 71,54 71,54 72,54 72,54 72,54 72,54 73,54 73,54 73,54 74,54 74,54 74,54 74,54 75,54 75,54 75,54 75,54 76,54 76,54 76,54 77,54 77,54 77,54 77,54 78,54 78,54 78,54 79,54 79,54 79,54 79,54 80,54 80,54 80,54 80,54 81,54 81,54 81,54 82,54 82,54 82,54 82,54 83,54 83,54 83,55 84,55 84,55 84,55 84,55 85,55 85,55 85,55 86,55 86,55 86,55 86,55 87,55 87,55 87,55 88,55 88,55 88,55 89,55 89,55 89,55 89,55 90,55 90,55 90,55 91,55 91,55 91,55 91,55 92,55 92,55 92,55 93,55 93,55 93,55 94,55 94,55 94,55 94,55 95,55 95,55 95,55 96,55 96,55 96,55 96,55 97,55 97,55 97,55 98,55 98,55 98,55 99,55 99,55 99,55 99,55 100,55 100,55 100,55 101,55 101,55 101,55 102,55 102,55 102,55 102,55 103,55 103,55 103,55 104,55 104,55 104,55 105,55 105,55 105,55 106,55 106,55 106,56 106,56 107,56 107,56 107,56 108,56 108,56 108,56 109,56 109,56 109,56 109,56 110,56 110,56 110,56 111,56 111,56 111,56 112,56 112,56 112,56 113,56 113,56 113,56 113,56 114,56 114,56 114,56 115,56 115,56 115,56 116,56 116,56 116,56 117,56 117,56 117,56 117,56 118,56 118,56 118,56 119,56 119,56 119,56 120,56 120,56 120,56 120,56 121,56 121,56 121,56 122,56 122,56 122,56 123,56 123,56 123,56 124,56 124,56 124,56 124,56 125,56 125,56 125,56 126,56 126,56 126,56 127,56 127,56 127,56 128,56 128,56 128,56 128,56 129,56 129,56 129,56 130,56 130,56 130,56 131,56 131,56 131,56 132,56 132,56 132,56 132,56 133,56 133,56 133,56 134,56 134,56 134,55 135,55 135,55 135,55 135,55 136,55 136,55 136,55 137,55 137,55 137,55 138,55 138,55 138,55 138,55 139,55 139,55 139,55 140,55 140,55 140,55 141,55 141,55 141,55 141,55 142,55 142,55 142,55 143,55 143,55 143,55 144,55 144,55 144,55 144,55 145,55 145,55 145,55 146,55 146,55 146,55 147,55 147,55 147,55 147,55 148,55 148,55 148,55 149,55 149,55 149,55 149,55 150,55 150,55 150,55 151,55 151,55 151,55 152,55 152,55 152,55 152,55 153,55 153,55 153,55 154,55 154,55 154,55 154,55 155,55 155,55 155,55 156,55 156,55 156,55 156,55 157,55 157,54 157,54 158,54 158,54 158,54 158,54 159,54 159,54 159,54 160,54 160,54 160,54 160,54 161,54 161,54 161,54 162,54 162,54 162,54 162,54 163,54 163,54 163,54 163,54 164,54 164,54 164,54 165,54 165,54 165,54 165,54 166,54 166,54 166,54 166,54 167,54 167,54 167,54 168,54 168,54 168,54 168,54 169,54 169,54 169,54 169,53 170,53 170,53 170,53 171,53 171,53 171,53 171,53 172,53 172,53 172,53 172,53 173,53 173,53 173,53 173,53 174,53 174,53 174,53 174,53 175,53 175,53 175,53 175,53 176,53 176,53 176,53 176,53 177,53 177,53 177,53 177,53 178,53 178,53 178,53 178,53 179,52 179,52 179,52 179,52 180,52 180,52 180,52 180,52 181,52 181,52 181,52 182,52 182,52 182,52 182,52 183,52 183,52 183,52 183,52 184,52 184,52 184,52 184,52 185,52 185,52 185,52 186,52 186,52 186,51 186,51 187,51 187,51 187,51 188,51 188,51 188,51 189,51 189,51 189,51 189,51 190,51 190,51 190,51 191,51 191,51 191,51 192,51 192,51 192,51 193,50 193,50 193,50 194,50 194,50 194,50 195,50 195,50 195,50 196,50 196,50 197,50 197,50 197,50 198,50 198,49 198,49 199,49 199,49 200,49 200,49 201,49 201,49 201,49 202,49 202,48 203,48 203,48 204,48 204,48 205,48 205,48 206,48 206,47 207,47 208,47 208,47 209,47 210,46 210,46 211,46 212,46 213,45 214,45 215,44 216,44 217,43 218,42 220,40 218,36 216,34 214,33 213,33 212,32 211,32 210,32 210,32 209,31 208,31 207,31 207,31 206,31 206,30 205,30 205,30 204,30 203,30 203,30 202,30 202,29 202,29 201,29 201,29 200,29 200,29 199,29 199,29 198,29 198,29 198,29 197,28 197,28 196,28 196,28 196,28 195,28 195,28 195,28 194,28 194,28 194,28 193,28 193,28 193,28 192,27 192,27 192,27 191,27 191,27 191,27 190,27 190,27 190,27 189,27 189,27 189,27 188,27 188,27 188,27 187,27 187,27 187,27 187,27 186,27 186,26 186,26 185,26 185,26 185,26 185,26 184,26 184,26 184,26 184,26 183,26 183,26 183,26 182,26 182,26 182,26 182,26 181,26 181,26 181,26 181,26 180,26 180,26 180,26 180,26 179,26 179,26 179,26 179,25 178,25 178,25 178,25 178,25 177,25 177,25 177,25 177,25 176,25 176,25 176,25 176,25 175,25 175,25 175,25 175,25 174,25 174,25 174,25 173,25 173,25 173,25 173,25 172,25 172,25 172,25 172,25 171,25 171,25 171,25 171,25 170,25 170,25 170,25 170,25 169,24 169,24 169,24 168,24 168,24 168,24 168,24 167,24 167,24 167,24 167,24 166,24 166,24 166,24 165,24 165,24 165,24 165,24 164,24 164,24 164,24 164,24 163,24 163,24 163,24 162,24 162,24 162,24 162,24 161,24 161,24 161,24 161,24 160,24 160,24 160,24 159,24 159,24 159,24 159,24 158,24 158,24 158,24 157,24 157,24 157,24 157,23 156,23 156,23 156,23 155,23 155,23 155,23 155,23 154,23 154,23 154,23 153,23 153,23 153,23 153,23 152,23 152,23 152,23 151,23 151,23 151,23 150,23 150,23 150,23 150,23 149,23 149,23 149,23 148,23 148,23 148,23 148,23 147,23 147,23 147,23 146,23 146,23 146,23 145,23 145,23 145,23 145,23 144,23 144,23 144,23 143,23 143,23 143,23 142,23 142,23 142,23 142,23 141,23 141,23 141,23 140,23 140,23 140,23 139,23 139,23 139,23 139,23 138,23 138,23 138,23 137,23 137,23 137,23 136,23 136,23 136,23 136,23 135,23 135,23 135,23 134,23 134,22 134,22 133,22 133,22 133,22 133,22 132,22 132,22 132,22 131,22 131,22 131,22 130,22 130,22 130,22 129,22 129,22 129,22 129,22 128,22 128,22 128,22 127,22 127,22 127,22 126,22 126,22 126,22 125,22 125,22 125,22 125,22 124,22 124,22 124,22 123,22 123,22 123,22 122,22 122,22 122,22 122,22 121,22 121,22 121,22 120,22 120,22 120,22 119,22 119,22 119,22 118,22 118,22 118,22 118,22 117,22 117,22 117,22 116,22 116,22 116,22 115,22 115,22 115,22 114,22 114,22 114,22 114,22 113,22 113,22 113,22 112,22 112,22 112,22 111,22 111,22 111,22 110,22 110,22 110,22 110,22 109,22 109,22 109,22 108,22 108,22 108,22 107,22 107,22 107,22 107,22 106,22 106,22 106,23 105,23 105,23 105,23 104,23 104,23 104,23 103,23 103,23 103,23 103,23 102,23 102,23 102,23 101,23 101,23 101,23 100,23 100,23 100,23 100,23 99,23 99,23 99,23 98,23 98,23 98,23 97,23 97,23 97,23 97,23 96,23 96,23 96,23 95,23 95,23 95,23 94,23 94,23 94,23 94,23 93,23 93,23 93,23 92,23 92,23 92,23 92,23 91,23 91,23 91,23 90,23 90,23 90,23 89,23 89,23 89,23 89,23 88,23 88,23 88,23 87,23 87,23 87,23 87,23 86,23 86,23 86,23 85,23 85,23 85,23 85,23 84,23 84,23 84,23 83,23 83,24 83,24 83,24 82,24 82,24 82,24 81,24 81,24 81,24 81,24 80,24 80,24 80,24 79,24 79,24 79,24 79,24 78,24 78,24 78,24 78,24 77,24 77,24 77,24 76,24 76,24 76,24 76,24 75,24 75,24 75,24 74,24 74,24 74,24 74,24 73,24 73,24 73,24 73,24 72,24 72,24 72,24 71,24 71,24 71,24 71,25 70,25 70,25 70,25 70,25 69,25 69,25 69,25 69,25 68,25 68,25 68,25 68,25 67,25 67,25 67,25 66,25 66,25 66,25 66,25 65,25 65,25 65,25 65,25 64,25 64,25 64,25 64,25 63,25 63,25 63,25 63,25 62,25 62,25 62,25 62,25 61,25 61,26 61,26 61,26 60,26 60,26 60,26 60,26 59,26 59,26 59,26 59,26 58,26 58,26 58,26 58,26 57,26 57,26 57,26 56,26 56,26 56,26 56,26 55,26 55,26 55,26 55,26 54,26 54,26 54,27 53,27 53,27 53,27 53,27 52,27 52,27 52,27 51,27 51,27 51,27 50,27 50,27 50,27 50,27 49,27 49,27 49,27 48,27 48,27 48,28 47,28 47,28 47,28 46,28 46,28 46,28 45,28 45,28 44,28 44,28 44,28 43,28 43,28 43,28 42,29 42,29 41,29 41,29 41,29 40,29 40,29 39,29 39,29 38,29 38,29 37,30 37,30 36,30 36,30 35,30 35,30 34,30 34,31 33,31 33,31 32,31 31,31 31,31 30,32 29,32 29,32 28,33 27,33 26,33 25,34 24,34 23,35 21,37 20,39 " />
<polyline fill="none" vector-effect="non-scaling-stroke" points="220,39 220,36 219,33 217,31 216,29 215,28 213,27 212,26 211,25 210,24 209,24 208,23 207,23 206,22 205,22 205,21 204,21 203,20 202,20 201,20 201,19 200,19 199,19 198,18 198,18 197,18 196,18 196,17 195,17 195,17 194,17 193,16 193,16 192,16 192,16 191,16 190,15 190,15 189,15 189,15 188,15 188,14 187,14 187,14 186,14 185,14 185,14 184,14 184,13 183,13 183,13 182,13 182,13 181,13 181,13 180,12 180,12 180,12 179,12 179,12 178,12 178,12 177,12 177,12 176,11 176,11 175,11 175,11 174,11 174,11 174,11 173,11 173,11 172,11 172,10 171,10 171,10 171,10 170,10 170,10 169,10 169,10 168,10 168,10 168,10 167,10 167,10 166,9 166,9 166,9 165,9 165,9 164,9 164,9 164,9 163,9 163,9 162,9 162,9 162,9 161,9 161,9 160,9 160,8 160,8 159,8 159,8 159,8 158,8 158,8 157,8 157,8 157,8 156,8 156,8 156,8 155,8 155,8 154,8 154,8 154,8 153,8 153,8 153,7 152,7 152,7 151,7 151,7 151,7 150,7 150,7 150,7 149,7 149,7 149,7 148,7 148,7 148,7 147,7 147,7 146,7 146,7 146,7 145,7 145,7 145,7 144,7 144,7 144,7 143,7 143,7 143,7 142,7 142,6 142,6 141,6 141,6 140,6 140,6 140,6 139,6 139,6 139,6 138,6 138,6 138,6 137,6 137,6 137,6 136,6 136,6 136,6 135,6 135,6 135,6 134,6 134,6 134,6 133,6 133,6 133,6 132,6 132,6 132,6 131,6 131,6 131,6 130,6 130,6 130,6 129,6 129,6 129,6 128,6 128,6 128,6 127,6 127,6 127,6 126,6 126,6 126,6 125,6 125,6 125,6 124,6 124,6 124,6 123,6 123,6 123,6 122,6 122,6 122,6 121,6 121,6 121,6 120,6 120,6 120,6 119,6 119,6 119,6 118,6 118,6 118,6 117,6 117,6 117,6 116,6 116,6 116,6 115,6 115,6 115,6 114,6 114,6 114,6 113,6 113,6 113,6 112,6 112,6 112,6 111,6 111,6 111,6 110,6 110,6 110,6 109,6 109,6 109,6 108,6 108,6 108,6 107,6 107,6 107,6 106,6 106,6 105,6 105,6 105,6 104,6 104,6 104,6 103,6 103,6 103,6 102,6 102,6 102,6 101,6 101,6 101,6 100,6 100,6 100,6 99,6 99,6 99,6 98,6 98,6 98,7 97,7 97,7 97,7 96,7 96,7 96,7 95,7 95,7 94,7 94,7 94,7 93,7 93,7 93,7 92,7 92,7 92,7 91,7 91,7 91,7 90,7 90,7 89,7 89,7 89,7 88,7 88,7 88,7 87,7 87,8 87,8 86,8 86,8 85,8 85,8 85,8 84,8 84,8 84,8 83,8 83,8 82,8 82,8 82,8 81,8 81,8 81,8 80,8 80,8 79,9 79,9 79,9 78,9 78,9 77,9 77,9 77,9 76,9 76,9 76,9 75,9 75,9 74,9 74,9 74,9 73,10 73,10 72,10 72,10 71,10 71,10 71,10 70,10 70,10 69,10 69,10 69,10 68,11 68,11 67,11 67,11 66,11 66,11 65,11 65,11 65,11 64,11 64,11 63,12 63,12 62,12 62,12 61,12 61,12 60,12 60,12 60,12 59,13 59,13 58,13 58,13 57,13 57,13 56,13 56,13 55,14 55,14 54,14 54,14 53,14 53,14 52,15 51,15 51,15 50,15 50,15 49,15 49,16 48,16 48,16 47,16 46,16 46,17 45,17 45,17 44,17 43,18 43,18 42,18 41,18 41,19 40,19 39,19 38,20 38,20 37,20 36,21 35,21 35,22 34,22 33,23 32,23 31,24 30,24 29,25 28,26 27,26 26,27 25,28 24,29 23,31 22,32 21,34 20,37 20,39 " />
<polyline fill="none" vector-effect="non-scaling-stroke" points="53,27 53,51 " />
<polyline fill="none" vector-effect="non-scaling-stroke" points="87,23 87,55 " />
<polyline fill="none" vector-effect="non-scaling-stroke" points="120,6 120,22 " />
<polyline fill="none" vector-effect="non-scaling-stroke" points="153,23 153,55 " />
<polyline fill="none" vector-effect="non-scaling-stroke" points="187,27 187,51 " />
</g>
</g>
</svg>
