<?xml version="1.0"?>
<svg xmlns="http://www.w3.org/2000/svg" xmlns:lc="http://www.librecad.org" xmlns:xlink="http://www.w3.org/1999/xlink" width="120mm" height="30mm" viewBox="0 0 120 30">
    <g lc:layername="0" lc:is_locked="false" lc:is_construction="false" fill="none" stroke="black" stroke-width="1">
        <path d="M120,20 C120,14.48216 93.10704,10 60,10 C26.89296,10 0,14.48216 0,20 C-0,25.51784 26.89296,30 60,30 C93.10704,30 120,25.51784 120,20 Z "/>
        <path d="M0,20 C-0,14.69770453 6.32572588,9.60715346 17.57359313,5.85786438 C28.82146038,2.10857529 44.09311359,0 60,0 C75.90688641,-0 91.17853962,2.10857529 102.42640687,5.85786438 C113.67427412,9.60715346 120,14.69770453 120,20 "/>
    </g>
    <g lc:layername="lines" lc:is_locked="false" lc:is_construction="false" fill="none" stroke="black" stroke-width="1">
        <line x1="20" y1="12.54644008" x2="20" y2="27.45355992"/>
        <line x1="40" y1="10.57190958" x2="40" y2="29.42809042"/>
        <line x1="60" y1="10" x2="60" y2="30"/>
        <line x1="100" y1="12.54644008" x2="100" y2="27.45355992"/>
        <line x1="80" y1="10.57190958" x2="80" y2="20"/>
        <line x1="80" y1="20" x2="90" y2="28.66025404"/>
        <line x1="70" y1="29.86013297" x2="80" y2="20"/>
    </g>
</svg>
