<?xml version="1.0" encoding="UTF-8" standalone="no"?>
<svg width="112.889mm" height="97.7194mm"
 viewBox="0 0 320 277"
 xmlns="http://www.w3.org/2000/svg" xmlns:xlink="http://www.w3.org/1999/xlink"  version="1.2" baseProfile="tiny">
<title>Qt SVG Document</title>
<desc>Generated with Qt</desc>
<defs>
</defs>
<g fill="none" stroke="black" stroke-width="1" fill-rule="evenodd" stroke-linecap="square" stroke-linejoin="bevel" >

<g fill="none" fill-opacity="1" stroke="none" transform="matrix(1,0,0,1,0,0)"
font-family="SimSun" font-size="9" font-weight="400" font-style="normal" 
>
<path vector-effect="none" fill-rule="evenodd" d="M0,0 L320,0 L320,277 L0,277 L0,0"/>
</g>

<g fill="none" stroke="#000000" stroke-opacity="1" stroke-width="1" stroke-linecap="round" stroke-linejoin="round" transform="matrix(1,0,0,1,0,0)"
font-family="SimSun" font-size="9" font-weight="400" font-style="normal" 
>
<polyline fill="none" vector-effect="non-scaling-stroke" points="160,138 160,196 " />
<polyline fill="none" vector-effect="non-scaling-stroke" points="160,138 211,109 " />
<polyline fill="none" vector-effect="non-scaling-stroke" points="160,138 110,109 " />
<polyline fill="none" vector-effect="non-scaling-stroke" points="83,5 238,5 " />
<polyline fill="none" vector-effect="non-scaling-stroke" points="238,5 315,138 " />
<polyline fill="none" vector-effect="non-scaling-stroke" points="315,138 238,272 " />
<polyline fill="none" vector-effect="non-scaling-stroke" points="238,272 83,272 " />
<polyline fill="none" vector-effect="non-scaling-stroke" points="83,272 6,138 " />
<polyline fill="none" vector-effect="non-scaling-stroke" points="6,138 83,5 " />
<polyline fill="none" vector-effect="non-scaling-stroke" points="83,5 110,109 " />
<polyline fill="none" vector-effect="non-scaling-stroke" points="110,109 6,138 " />
<polyline fill="none" vector-effect="non-scaling-stroke" points="83,272 160,196 " />
<polyline fill="none" vector-effect="non-scaling-stroke" points="160,196 238,272 " />
<polyline fill="none" vector-effect="non-scaling-stroke" points="315,138 211,109 " />
<polyline fill="none" vector-effect="non-scaling-stroke" points="211,109 238,5 " />
</g>
</g>
</svg>
