<?xml version="1.0"?>
<svg xmlns="http://www.w3.org/2000/svg" xmlns:lc="http://www.librecad.org" xmlns:xlink="http://www.w3.org/1999/xlink" width="140mm" height="34.14213562mm" viewBox="0 0 140 34.14213562">
    <g lc:layername="0" lc:is_locked="false" lc:is_construction="false" fill="none" stroke="black" stroke-width="1">
        <line x1="40" y1="10.96492097" x2="40" y2="29.03507903"/>
        <line x1="60" y1="29.89743319" x2="60" y2="10.10256681"/>
        <line x1="80" y1="10.10256681" x2="80" y2="29.89743319"/>
        <line x1="100" y1="10.96492097" x2="100" y2="29.03507903"/>
    </g>
    <g lc:layername="inner" lc:is_locked="false" lc:is_construction="false" fill="none" stroke="black" stroke-width="1">
        <path d="M0,20 C0,25.51784 31.37512,30 70,30 C108.62488,30 140,25.51784 140,20 C140,14.48216 108.62488,10 70,10 C31.37512,10 0,14.48216 0,20 Z "/>
    </g>
    <g lc:layername="outer" lc:is_locked="false" lc:is_construction="false" fill="none" stroke="black" stroke-width="1">
        <path d="M0,20 C-0,14.69770453 7.38001353,9.60715346 20.50252532,5.85786438 C33.62503711,2.10857529 51.44196586,0 70,0 C88.55803414,-0 106.37496289,2.10857529 119.49747468,5.85786438 C132.61998647,9.60715346 140,14.69770453 140,20 "/>
    </g>
    <g lc:layername="outer2" lc:is_locked="false" lc:is_construction="false" fill="none" stroke="black" stroke-width="1">
        <path d="M89.61482478,29.59938205 A14.14213562,14.14213562 0 0,0 111.63517522,28.03882439 "/>
    </g>
</svg>
